<?xml version="1.0" encoding="UTF-8"?>
<svg width="256px" height="256px" viewBox="0 0 256 256" version="1.1" xmlns="http://www.w3.org/2000/svg">
    <g>
        <path d="M141.013,4.8 C137.226,5.1 133.439,5.7 129.852,6.6 C123.278,8.1 117.304,10.5 111.93,13.8 C107.543,16.5 103.456,19.8 99.969,23.7 C97.169,26.7 94.769,30 92.769,33.6 C91.069,36.6 89.669,39.9 88.569,43.2 C87.469,46.5 86.669,49.8 86.069,53.4 C85.469,56.7 85.169,60 85.069,63.3 C84.969,66.6 85.069,69.9 85.369,73.2 C85.669,76.5 86.169,79.8 86.869,82.8 C87.569,85.8 88.469,88.8 89.569,91.8 C90.669,94.8 91.969,97.5 93.369,100.2 C94.769,102.9 96.369,105.3 98.069,107.7 C99.769,110.1 101.669,112.2 103.669,114.3 C105.669,116.4 107.769,118.2 110.069,120 C112.369,121.8 114.769,123.3 117.169,124.8 C119.569,126.3 122.069,127.5 124.669,128.7 C127.269,129.9 129.969,130.8 132.669,131.7 C135.369,132.6 138.169,133.2 140.969,133.8 C143.769,134.4 146.569,134.7 149.469,135 C152.369,135.3 155.269,135.3 158.169,135.3 C161.069,135.3 163.969,135 166.869,134.7 C169.769,134.4 172.569,133.8 175.369,133.2 C178.169,132.6 180.969,131.7 183.669,130.8 C186.369,129.9 189.069,128.7 191.669,127.5 C194.269,126.3 196.769,124.8 199.069,123.3 C201.369,121.8 203.669,120 205.969,118.2 C208.269,116.4 210.369,114.3 212.369,112.2 C214.369,110.1 216.269,107.7 217.969,105.3 C219.669,102.9 221.269,100.2 222.669,97.5 C224.069,94.8 225.369,92.1 226.469,89.1 C227.569,86.1 228.469,83.1 229.169,80.1 C229.869,77.1 230.369,73.8 230.669,70.5 C230.969,67.2 231.069,63.9 230.969,60.6 C230.869,57.3 230.569,54 230.069,50.7 C229.569,47.4 228.769,44.1 227.669,40.8 C226.569,37.5 225.169,34.2 223.469,31.2 C221.469,27.6 219.069,24.3 216.269,21.3 C212.782,17.4 208.695,14.1 204.308,11.4 C198.934,8.1 192.96,5.7 186.386,4.2 C182.799,3.3 179.012,2.7 175.225,2.4 C171.438,2.1 167.651,2.1 163.864,2.4 C160.077,2.7 156.29,3.3 152.703,4.2 C149.116,5.1 145.529,5.7 141.742,6.6 L141.013,4.8 Z" fill="#003B57"></path>
    </g>
</svg> 